# xmcd
#
# Track frame offsets: 
#        150
#        21224
#        36819
#        53332
#        69741
#        81431
#        98133
#        115305
#        127441
#        158055
#        178595
#        197234
#        206543
#        226659
#        243327
#        268973
#
# Disc length: 3806 seconds
#
# Revision: 0
# Processed by: cddbd v1.5.2PL0 Copyright (c) Steve Scherf et al.
# Submitted via: ExactAudioCopyFreeDBPlugin 1.0
#
DISCID=e10edc10
DTITLE=Faith Evans - Incomparable
DYEAR=2014
DGENRE=R&B
TTITLE0=Prelude - Thank You Good Night
TTITLE1=Extraordinary
TTITLE2=I Deserve It (feat. Missy Elliott and Sharaya J)
TTITLE3=Really Wanna Do
TTITLE4=Take Your Time (Interlude)
TTITLE5=Fragile
TTITLE6=Incomparable
TTITLE7=Ride the Beat (Interlude)
TTITLE8=Make Love (feat. Keke Wyatt)
TTITLE9=Good Time (feat. Problem)
TTITLE10=Forever
TTITLE11=Ever Go Away
TTITLE12=He Is
TTITLE13=Paradise (feat. B. Slade and Karen Clark-Sheard)
TTITLE14=Thank You's (Outro)
TTITLE15=Maybe
EXTD=
EXTT0=
EXTT1=
EXTT2=
EXTT3=
EXTT4=
EXTT5=
EXTT6=
EXTT7=
EXTT8=
EXTT9=
EXTT10=
EXTT11=
EXTT12=
EXTT13=
EXTT14=
EXTT15=
PLAYORDER=
